<svg width="81" height="81" viewBox="0 0 81 81" fill="none" xmlns="http://www.w3.org/2000/svg">
  <!-- 创作图标 - 选中状态 -->
  <defs>
    <linearGradient id="createGrad" x1="10" y1="10" x2="70" y2="70" gradientUnits="userSpaceOnUse">
      <stop offset="0%" stop-color="#FF8A80"/>
      <stop offset="100%" stop-color="#FF6B6B"/>
    </linearGradient>
    <linearGradient id="starGrad" x1="0" y1="0" x2="1" y2="1">
      <stop offset="0%" stop-color="#FFE66D"/>
      <stop offset="100%" stop-color="#FFD93D"/>
    </linearGradient>
  </defs>
  <!-- 魔法棒 -->
  <rect x="14" y="52" width="40" height="10" rx="5"
        transform="rotate(-45 14 52)"
        fill="url(#createGrad)"/>
  <!-- 魔法棒头部 -->
  <rect x="48" y="12" width="18" height="22" rx="4"
        transform="rotate(-45 48 12)"
        fill="url(#createGrad)"/>
  <!-- 星星1 - 大 - 黄色填充 -->
  <path d="M62 28l2.5 5 5.5.8-4 3.9.9 5.5-4.9-2.6-4.9 2.6.9-5.5-4-3.9 5.5-.8L62 28z"
        fill="url(#starGrad)"/>
  <!-- 星星2 - 小 -->
  <path d="M22 18l1.5 3 3.3.5-2.4 2.3.6 3.3-2.9-1.6-3 1.6.6-3.3-2.4-2.3 3.3-.5L22 18z"
        fill="url(#starGrad)"/>
  <!-- 闪光点 -->
  <circle cx="72" cy="18" r="2" fill="#4ECDC4"/>
  <circle cx="16" cy="30" r="1.5" fill="#4ECDC4"/>
</svg>
