<svg width="81" height="81" viewBox="0 0 81 81" fill="none" xmlns="http://www.w3.org/2000/svg">
  <!-- 创作图标 - 魔法棒 + 星星，代表创意生成 -->
  <!-- 魔法棒 -->
  <rect x="14" y="52" width="40" height="10" rx="5"
        transform="rotate(-45 14 52)"
        fill="none"
        stroke="#B2BEC3"
        stroke-width="3.5"/>
  <!-- 魔法棒头部 -->
  <rect x="48" y="12" width="18" height="22" rx="4"
        transform="rotate(-45 48 12)"
        fill="none"
        stroke="#B2BEC3"
        stroke-width="3.5"/>
  <!-- 星星1 - 大 -->
  <path d="M62 28l2.5 5 5.5.8-4 3.9.9 5.5-4.9-2.6-4.9 2.6.9-5.5-4-3.9 5.5-.8L62 28z"
        fill="none"
        stroke="#B2BEC3"
        stroke-width="2.5"
        stroke-linejoin="round"/>
  <!-- 星星2 - 小 -->
  <path d="M22 18l1.5 3 3.3.5-2.4 2.3.6 3.3-2.9-1.6-3 1.6.6-3.3-2.4-2.3 3.3-.5L22 18z"
        fill="none"
        stroke="#B2BEC3"
        stroke-width="2"
        stroke-linejoin="round"/>
</svg>
